<svg width="1024" height="1024" viewBox="0 0 1024 1024" fill="none" xmlns="http://www.w3.org/2000/svg">
<g clip-path="url(#clip0_19_12)">
<path d="M1024 512C1024 229.23 794.77 0 512 0C229.23 0 0 229.23 0 512C0 794.77 229.23 1024 512 1024C794.77 1024 1024 794.77 1024 512Z" fill="white"/>
<path d="M512 335C567.228 335 612 290.228 612 235C612 179.772 567.228 135 512 135C456.772 135 412 179.772 412 235C412 290.228 456.772 335 512 335Z" fill="black"/>
<path d="M732 793C787.228 793 832 748.228 832 693C832 637.772 787.228 593 732 593C676.772 593 632 637.772 632 693C632 748.228 676.772 793 732 793Z" fill="black"/>
<path d="M292 793C347.228 793 392 748.228 392 693C392 637.772 347.228 593 292 593C236.772 593 192 637.772 192 693C192 748.228 236.772 793 292 793Z" fill="black"/>
<path d="M392 564C447.228 564 492 519.228 492 464C492 408.772 447.228 364 392 364C336.772 364 292 408.772 292 464C292 519.228 336.772 564 392 564Z" fill="black"/>
<path d="M632 564C687.228 564 732 519.228 732 464C732 408.772 687.228 364 632 364C576.772 364 532 408.772 532 464C532 519.228 576.772 564 632 564Z" fill="black"/>
</g>
<defs>
<clipPath id="clip0_19_12">
<rect width="1024" height="1024" fill="white"/>
</clipPath>
</defs>
</svg>
